<?xml version="1.0" encoding="utf-8"?>
<!-- Generator: Adobe Illustrator 22.0.1, SVG Export Plug-In . SVG Version: 6.00 Build 0)  -->
<svg version="1.1" id="Layer_1" xmlns="http://www.w3.org/2000/svg" xmlns:xlink="http://www.w3.org/1999/xlink" x="0px" y="0px"
	 viewBox="0 0 417.3 242.8" style="enable-background:new 0 0 417.3 242.8;" xml:space="preserve">
<style type="text/css">
	.st0{fill:#131313;}
</style>
<path class="st0" d="M114,74.2c2.2,4.8,3.4,10,3.4,15.7c0,8.4-2.3,16-6.9,23c-4.6,7-11,12.4-19.3,16c-8.3,3.6-18.7,5.4-31.3,5.4
	c-22.1,0-37.4-4.3-45.9-12.8c-7.6-7.6-12.2-17.1-14-28.4L37.7,87c0.8,6.1,2.5,10.8,5,14c4.1,5.3,10.1,7.9,17.7,7.9
	c5.7,0,10.2-1.3,13.2-4c3.1-2.7,4.7-5.8,4.7-9.4c0-3.4-1.5-6.4-4.4-9c-1.6-1.4-4.4-2.8-8.2-4.2L114,74.2z M134.7,70.9v61.3H175V79.1
	h43.5V55.7L134.7,70.9z M288.8,44.4l11.8,38.3H272l11.4-37.4l-37.1,6.2L216,132.2h41l6.3-21.4h45.6l6.5,21.4h42l-35.1-93.4
	L288.8,44.4z M371.6,30.5v101.7h40.2V23.7L371.6,30.5z M19.6,182.7c-3.2,0-7.5-1.7-10-3.4L5,186.7c3.6,2.3,8.8,4.1,14.4,4.1
	c8.1,0,14-3.2,14-11c0-6.4-3.8-9-12.3-11c-4.4-1-5.6-1.6-5.6-2.8c0-1.2,0.7-2.1,3.5-2.1c3.4,0,6.4,1.2,9.5,3.2l4.6-7.4
	c-3.6-2.5-7.8-4-13.6-4c-8.2,0-13.4,4.3-13.4,10.8c0,6.8,3.9,9.1,12.1,11c4.6,1.1,5.8,1.8,5.8,3.1C24,182.1,22.9,182.7,19.6,182.7z
	 M47.9,184.3h10.7l1.9,6h10.7l-13-34h-10l-13,34H46L47.9,184.3z M51,174.6c1.3-4.3,1.9-6.2,2.3-8.5c0.5,2.3,1,4.1,2.3,8.5l0.6,2.2
	h-5.9L51,174.6z M85,179.9c0-2.7-0.1-7.3-0.3-8.8c0.9,1.5,3.8,5.9,5.3,7.9l8.1,11.3h7.7v-34h-9v9.3c0,2.8,0.1,7.3,0.3,8.8
	c-0.7-1.4-3.8-5.9-5.3-8l-7.5-10.1H76v34h9V179.9z M147.8,169h-10.6v-4.7h17.5v-8h-26.9v34h9.4V177h10.6V169z M181.7,177.3
	c3.8-1.7,6.1-4.9,6.1-10c0-8.1-5.3-11.1-13.3-11.1h-15.2v34h9.3v-11.5h3.8l5.5,11.5h10.6L181.7,177.3z M174.2,171.4h-5.6v-7.4h5.7
	c2.9,0,4.1,1.5,4.1,3.6C178.5,170,177.3,171.4,174.2,171.4z M226.7,190.3l-12.3-34h-9.5l-12.4,34h10.1l1.9-6h10.2l1.9,6H226.7z
	 M206.8,176.8l0.6-2.2c1.2-4.3,1.7-6.2,2.2-8.5c0.4,2.3,1,4.1,2.2,8.5l0.6,2.2H206.8z M260.8,190.3v-34h-9.1v9.3
	c0,2.8,0.1,7.3,0.3,8.8c-0.7-1.4-3.7-5.9-5.3-8l-7.5-10.1h-8.3v34h9v-10.4c0-2.7,0-7.3-0.3-8.8c0.9,1.5,3.8,5.9,5.3,7.9l8.1,11.3
	H260.8z M281.8,190.8c8.1,0,11.9-4.3,14.2-8.8l-8-4.2c-1.9,3.2-3.1,4.8-6.1,4.8c-4.1,0-5.8-4.1-5.8-9.3c0-5.4,1.7-9.3,5.6-9.3
	c3.1,0,4.3,2,5.5,5.1l8.5-3.3c-2.3-6.4-5.6-10-14-10c-9.2,0-15.6,6.6-15.6,17.6C266.3,183.4,271.8,190.8,281.8,190.8z M309.7,156.3
	H300v34h9.6V156.3z M330.3,168.8c-4.4-1-5.6-1.6-5.6-2.8c0-1.2,0.7-2.1,3.5-2.1c3.4,0,6.4,1.2,9.5,3.2l4.6-7.4
	c-3.6-2.5-7.8-4-13.6-4c-8.2,0-13.4,4.3-13.4,10.8c0,6.8,4,9.1,12.1,11c4.6,1.1,5.8,1.8,5.8,3.1c0,1.6-1.1,2.1-4.4,2.1
	c-3.2,0-7.5-1.7-10-3.4l-4.6,7.4c3.6,2.3,8.8,4.1,14.4,4.1c8.2,0,14-3.2,14-11C342.6,173.5,338.8,170.8,330.3,168.8z M362.5,182.6
	c-4.1,0-5.7-4.1-5.7-9.3c0-5.4,1.7-9.3,5.6-9.3c3.1,0,4.3,2,5.5,5.1l8.6-3.3c-2.3-6.4-5.6-10-14-10c-9.1,0-15.5,6.6-15.5,17.6
	c0,10.1,5.4,17.5,15.5,17.5c8.1,0,11.9-4.3,14.1-8.8l-7.9-4.2C366.8,181,365.5,182.6,362.5,182.6z M395.9,155.7
	c-9.2,0-15.8,6.3-15.8,17.6c0,11.3,6.5,17.5,15.7,17.5s15.8-6.2,15.8-17.6C411.6,161.9,405.2,155.7,395.9,155.7z M395.9,182.6
	c-3.8,0-6-3.3-6-9.4c0-6.1,2.2-9.3,5.9-9.3c3.8,0,6,3.2,6,9.4C401.9,179.4,399.7,182.6,395.9,182.6z M16.6,208.3l-12.4,34h10.1
	l1.8-6h10.2l1.9,6h10.2l-12.3-34H16.6z M18.5,228.8l0.6-2.3c1.2-4.3,1.7-6.2,2.2-8.5c0.4,2.3,1,4.1,2.2,8.5l0.6,2.3H18.5z
	 M73.4,219.4c0-8.1-5.3-11.1-13.3-11.1H44.9v34h9.3v-11.5h3.8l5.5,11.5H74l-6.8-13C71,227.6,73.4,224.4,73.4,219.4z M59.7,223.4
	h-5.5V216h5.7c3,0,4.1,1.5,4.1,3.6C64,222,62.8,223.4,59.7,223.4z M80.4,216.5h9.5v25.8h9.4v-25.8h9.6v-8.2H80.4V216.5z
	 M125.8,242.3h9.6v-34h-9.6V242.3z M165.1,217.6c0,2.8,0,7.3,0.3,8.8c-0.8-1.4-3.8-5.9-5.3-8l-7.5-10.1h-8.3v34h9.1v-10.4
	c0-2.8-0.1-7.3-0.3-8.8c0.9,1.5,3.8,5.9,5.3,8l8.1,11.2h7.7v-34h-9.1V217.6z M197.7,220.8c-4.3-1-5.6-1.6-5.6-2.8
	c0-1.2,0.7-2.1,3.5-2.1c3.5,0,6.5,1.2,9.5,3.2l4.6-7.4c-3.6-2.5-7.8-3.9-13.6-3.9c-8.2,0-13.4,4.3-13.4,10.7
	c0,6.8,3.9,9.1,12.1,10.9c4.6,1.1,5.8,1.8,5.8,3.1c0,1.6-1,2.2-4.4,2.2c-3.1,0-7.4-1.7-10-3.4l-4.6,7.4c3.5,2.3,8.8,4.1,14.3,4.1
	c8.2,0,14.1-3.2,14.1-11C210.1,225.5,206.3,222.9,197.7,220.8z M215.6,216.5h9.5v25.8h9.4v-25.8h9.5v-8.2h-28.5V216.5z M252.1,242.3
	h9.6v-34h-9.6V242.3z M269.8,216.5h9.5v25.8h9.4v-25.8h9.5v-8.2h-28.5V216.5z M326.4,227.7c0,4.2-1.6,6.8-5.3,6.8s-5.4-2.6-5.4-6.8
	v-19.5h-9.6v19.5c0,10.8,6.2,15.1,14.8,15.1c8.6,0,15-4.2,15-15.1v-19.5h-9.6V227.7z M342.9,216.5h9.5v25.8h9.4v-25.8h9.6v-8.2
	h-28.5V216.5z M388.9,228.5h10.1v-7.9h-10.1v-4.5h16.7v-7.9h-26v34h26.4v-7.9h-17V228.5z"/>
<g>
	<polygon class="st0" points="414.8,5.6 417.3,3 411.2,3 408.7,5.6 	"/>
	<path class="st0" d="M213,3l-4.2,4.2c0.6,0.2,1.2,0.2,1.8,0.5c0.9,0.3,1.7,0.8,2.6,1.3l5.9-5.9H213z"/>
	<polygon class="st0" points="365.9,3 365.9,5.6 368.1,5.6 370.7,3 	"/>
	<path class="st0" d="M83.2,10.7L87.8,6c-0.4-0.1-0.8-0.2-1.2-0.4c-1-0.4-2.1-0.8-3.3-1.3l-3.6,3.6C81,8.8,82.1,9.7,83.2,10.7z"/>
	<path class="st0" d="M48.4,4.5c2.3-0.8,4.9-1.3,7.6-1.6L58.9,0c-2.4,0.1-4.7,0.4-6.9,0.8l-3.8,3.8C48.2,4.6,48.3,4.5,48.4,4.5z"/>
	<path class="st0" d="M67.6,2.9l2.4-2.3c-1.7-0.3-3.6-0.5-5.5-0.6l-2.5,2.5C63.9,2.5,65.8,2.7,67.6,2.9z"/>
	<path class="st0" d="M95.5,33.3l4.1-4.1v-6.1l-5.8,5.8C94.4,30.3,95,31.8,95.5,33.3z"/>
	<path class="st0" d="M76.4,5.6c0,0,0.1,0.1,0.1,0.1l2.7-2.7c-1.4-0.5-3-0.9-4.7-1.4l-2.4,2.4C73.6,4.4,75.1,4.9,76.4,5.6z"/>
	<path class="st0" d="M235.3,15.7l-7.7,7.7c0.7,1.3,1.4,2.6,2.1,4l5.6-5.6V15.7z"/>
	<path class="st0" d="M235.3,4.1l-12.4,12.4c0.9,1.1,1.8,2.3,2.6,3.5l9.8-9.8V4.1z"/>
	<path class="st0" d="M224.6,3l-7.9,7.9c1.2,0.8,2.3,1.6,3.4,2.5c0,0,0.1,0.1,0.1,0.1L230.7,3H224.6z"/>
	<path class="st0" d="M97.3,38h2.4v-3.3L97,37.3C97.1,37.6,97.2,37.8,97.3,38z"/>
	<path class="st0" d="M235.3,27.4l-3.9,3.9c0.5,1.1,1,2.2,1.4,3.4h1.3l1.2-1.2V27.4z"/>
	<path class="st0" d="M43.7,3.1c-5.5,2.1-10.2,5-14.2,8.5c-3.9,3.5-7,7.6-9.2,12.1c-0.8,1.6-1.4,3.3-1.9,5L44.2,3
		C44.1,3,43.9,3.1,43.7,3.1z"/>
	<path class="st0" d="M86.2,13.9c0.8,1,1.5,2.2,2.2,3.3L99.7,5.8v-3h-3c-0.6,1.5-1.2,2.5-1.8,3c-0.4,0.4-1.2,0.6-2.2,0.7l-6.9,6.9
		C85.9,13.7,86.1,13.7,86.2,13.9z"/>
	<path class="st0" d="M106.1,75.7c-0.1-0.1-0.2-0.3-0.3-0.4l-0.6,0.6L106.1,75.7z"/>
	<path class="st0" d="M86.6,59.5L64.3,81.8l1.4,0.5l5-0.8l20-20C89.4,60.7,88,60.1,86.6,59.5z"/>
	<path class="st0" d="M78.1,56.2L55.7,78.7l4.5,1.6l22.4-22.4C81.2,57.3,79.6,56.8,78.1,56.2z"/>
	<path class="st0" d="M70.6,53.5c-0.4-0.1-0.7-0.2-1-0.3L47.1,75.6l0.6,0.2c0.1,0,0.2,0.1,0.3,0.1l3.5,1.3l22.4-22.4
		C72.9,54.4,71.8,53.9,70.6,53.5z"/>
	<path class="st0" d="M30.9,25.6c0-1.4,0.2-2.9,0.5-4.3L17.2,35.6C17.1,36.4,17,37.2,17,38c0,1.3,0.1,2.5,0.2,3.7L31,27.8
		C31,27.1,30.9,26.4,30.9,25.6z"/>
	<path class="st0" d="M98.6,76.9l4.9-4.9c-0.9-1.1-1.8-2.2-2.9-3.2l-9.3,9.3L98.6,76.9z"/>
	<path class="st0" d="M84.6,79.2L97.8,66c-1.1-0.9-2.4-1.7-3.6-2.5L77.3,80.4L84.6,79.2z"/>
	<path class="st0" d="M32.1,32.3L17.8,46.6c0.3,1.7,0.7,3.3,1.2,4.9l15.2-15.2C33.3,35.1,32.6,33.8,32.1,32.3z"/>
	<path class="st0" d="M37,39L20.7,55.4c0.7,1.3,1.5,2.6,2.3,3.8l17.4-17.4C39.2,40.9,38.1,40,37,39z"/>
	<path class="st0" d="M60.7,50.4L38.9,72.1c0.7,0.3,1.4,0.8,2.1,1.1c0.7,0.3,1.4,0.5,2.1,0.8l22.2-22.2
		C63.8,51.4,62.2,50.9,60.7,50.4z"/>
	<path class="st0" d="M55.9,48.9c-1.4-0.4-2.7-1-4-1.4L31.6,67.8c1.2,0.9,2.4,1.7,3.6,2.5l21.2-21.2C56.3,49,56.1,48.9,55.9,48.9z"
		/>
	<path class="st0" d="M43.8,43.9L25.5,62.3c1,1.1,1.9,2.2,3,3.1L48,45.9C46.5,45.2,45.1,44.6,43.8,43.9z"/>
	<path class="st0" d="M92.4,24.8l7.3-7.3v-6.1l-9.3,9.3C91.1,22,91.8,23.4,92.4,24.8z"/>
	<polygon class="st0" points="306.9,41.4 305.7,38.6 302.1,42.2 	"/>
	<polygon class="st0" points="295.5,43.3 304.1,34.7 302.2,30.4 288.1,44.5 	"/>
	<polygon class="st0" points="295.1,14.2 270.8,38.6 266.8,48.1 267.4,48 297,18.4 	"/>
	<polygon class="st0" points="291.6,6 278.9,18.8 274.6,29.1 293.5,10.3 	"/>
	<polygon class="st0" points="281.4,45.6 300.5,26.6 298.7,22.3 274.1,46.9 	"/>
	<path class="st0" d="M207.9,36.4c-0.1,0.5-0.2,1-0.4,1.5l1.5-1.5L207.9,36.4z"/>
	<polygon class="st0" points="285.3,3 282.7,9.4 289,3 	"/>
	<polygon class="st0" points="399.6,3 378.3,24.3 378.3,29.4 379.5,29.2 405.7,3 	"/>
	<polygon class="st0" points="387.9,3 378.3,12.6 378.3,18.7 394,3 	"/>
	<path class="st0" d="M210.4,40.6l-4.9,4.9c-0.3,0.8-0.5,1.6-0.8,2.3c-1.3,3.4-3,6.3-5.1,8.8c-1,1.2-2.2,2.3-3.5,3.2l1.3-0.2
		l12.9-12.9L210.4,40.6z"/>
	<polygon class="st0" points="376.2,3 373.7,5.6 378.3,5.6 378.3,7 382.3,3 	"/>
	<polygon class="st0" points="405.2,24.9 405.2,20.8 400.2,25.7 	"/>
	<polygon class="st0" points="393.6,26.8 405.2,15.2 405.2,9.1 386.2,28.1 	"/>
	<polygon class="st0" points="189.6,3 187.1,5.6 193.2,5.6 195.7,3 	"/>
	<polygon class="st0" points="131.3,3 128.8,5.6 134.9,5.6 137.4,3 	"/>
	<polygon class="st0" points="166.3,3 143,26.4 143,32.5 169.8,5.7 169.8,5.6 169.9,5.6 172.4,3 	"/>
	<polygon class="st0" points="143,3 140.4,5.6 143,5.6 143,9.1 149.1,3 	"/>
	<polygon class="st0" points="154.7,3 143,14.7 143,20.8 160.8,3 	"/>
	<path class="st0" d="M201.3,3l-2.6,2.6c2,0,3.9,0.2,5.7,0.4l3.1-3.1H201.3z"/>
	<polygon class="st0" points="178,3 175.4,5.6 181.5,5.6 184.1,3 	"/>
	<polygon class="st0" points="143,55.8 169.8,29 169.8,22.9 143,49.7 	"/>
	<polygon class="st0" points="154.7,67.4 169.8,52.3 169.8,46.2 147.2,68.8 	"/>
	<polygon class="st0" points="169,64.8 169.8,64 169.8,57.9 161.5,66.2 	"/>
	<polygon class="st0" points="143,67.4 169.8,40.6 169.8,34.5 143,61.3 	"/>
	<polygon class="st0" points="143,44.1 169.8,17.3 169.8,11.2 143,38 	"/>
	<polygon class="st0" points="210.6,57.1 210.5,52.1 204.4,58.3 	"/>
</g>
</svg>
